<svg xmlns="http://www.w3.org/2000/svg" viewBox="0 0 152.51 45.23"><defs><style>.cls-1{fill:#009fe3;}.cls-2{fill:none;}</style></defs><title>Analisys_v1_vector</title><g id="Réteg_2" data-name="Réteg 2"><g id="Réteg_1" data-name="Réteg 1"><path class="cls-1" d="M19.39.27a3.92,3.92,0,0,0-4.6,1.43,16.09,16.09,0,0,0-2.56,5.53c-2,6.47-3.73,13.23-5.35,20.67C6,32,5.16,35.55,4.33,38.78c-.06.23-.13.45-.21.68a2.59,2.59,0,0,0-1.82-.53A2.47,2.47,0,0,0,0,41.18a3.54,3.54,0,0,0,1.67,3.49A3.54,3.54,0,0,0,4,45.21a4,4,0,0,0,2.77-1.57,10,10,0,0,0,1.53-2.56c.77-2.08,1.48-4.2,2.1-6.29,1.5-5.08,2.92-10.7,4.46-17.7.91-4.13,1.71-7.55,2.54-10.78a5.6,5.6,0,0,1,.17-.54,2.6,2.6,0,0,0,1.71.52,2.45,2.45,0,0,0,2.36-2.1A3.61,3.61,0,0,0,19.39.27Z"/><path class="cls-2" d="M18.94,8.5l0-.06h0Z"/><path class="cls-2" d="M66.1,35A2.76,2.76,0,0,0,65.4,37,1.9,1.9,0,0,0,66,38.43a2.28,2.28,0,0,0,1.59.55,4.09,4.09,0,0,0,2.14-.56,3.34,3.34,0,0,0,1.3-1.35V34.28H68.39A3,3,0,0,0,66.1,35Z"/><path class="cls-2" d="M14.67,27.37h6.17L17.3,15.62l-.49,2.28C16.08,21.35,15.37,24.47,14.67,27.37Z"/><path class="cls-1" d="M49.85,21.76a6.59,6.59,0,0,0-3.39.88,7.66,7.66,0,0,0-2.56,2.48l-.26-3H37.45V43.28H44v-15a3.81,3.81,0,0,1,1.41-1.06,4.75,4.75,0,0,1,1.89-.37,2.24,2.24,0,0,1,1.88.85,4.85,4.85,0,0,1,.64,2.86V43.28h6.61V30.56c0-3.06-.59-5.29-1.75-6.69A6,6,0,0,0,49.85,21.76Z"/><path class="cls-1" d="M77.65,37.26v-8a6.74,6.74,0,0,0-2.43-5.58,9.87,9.87,0,0,0-6.36-1.95,10.78,10.78,0,0,0-6.73,1.94,5.51,5.51,0,0,0-2.41,4.83l0,.12,6.4,0A2.23,2.23,0,0,1,66.72,27a2.37,2.37,0,0,1,1.71-.54,2.49,2.49,0,0,1,2,.73,3,3,0,0,1,.65,2.07v1.5H68.33q-4.8,0-7.17,1.71a5.65,5.65,0,0,0-2.36,4.85A6,6,0,0,0,60.65,42a7.3,7.3,0,0,0,5.16,1.71,5.11,5.11,0,0,0,3.29-1A8,8,0,0,0,71.22,40a12.2,12.2,0,0,0,.4,1.76,8,8,0,0,0,.64,1.5l6.52,0a16.63,16.63,0,0,1-.85-2.89A16.27,16.27,0,0,1,77.65,37.26Zm-6.6-.19a3.34,3.34,0,0,1-1.3,1.35,4.09,4.09,0,0,1-2.14.56A2.28,2.28,0,0,1,66,38.43,1.9,1.9,0,0,1,65.4,37,2.76,2.76,0,0,1,66.1,35a3,3,0,0,1,2.29-.76h2.66Z"/><rect class="cls-1" x="81.55" y="12.81" width="6.62" height="30.47"/><rect class="cls-1" x="92.74" y="22.15" width="6.62" height="21.13"/><polygon class="cls-1" points="104.13 13.63 104.09 13.51 96.85 13.51 92.82 18.71 98.64 18.71 104.13 13.63"/><polygon class="cls-1" points="120.77 25.7 120.77 22.15 103.43 22.15 103.43 27.22 112.41 27.22 103.02 39.61 103.02 43.28 120.97 43.28 120.97 38.2 111.36 38.2 120.77 25.7"/><rect class="cls-1" x="124.48" y="22.15" width="6.62" height="21.13"/><path class="cls-1" d="M150.65,32.86a13.11,13.11,0,0,0-5.74-2.28,9.14,9.14,0,0,1-3.27-1,1.73,1.73,0,0,1-.81-1.43,1.8,1.8,0,0,1,.7-1.44,2.68,2.68,0,0,1,1.74-.57,2.75,2.75,0,0,1,2,.65,2.6,2.6,0,0,1,.63,1.89h6.4l0-.12A5.53,5.53,0,0,0,150,23.64a10.89,10.89,0,0,0-6.72-1.88,9.63,9.63,0,0,0-6.35,1.94,5.93,5.93,0,0,0-2.34,4.74,5.07,5.07,0,0,0,1.88,4.17A12.83,12.83,0,0,0,142,34.84,9.65,9.65,0,0,1,145.27,36a1.7,1.7,0,0,1,.89,1.39,1.74,1.74,0,0,1-.68,1.48,3.35,3.35,0,0,1-2,.51,4,4,0,0,1-2.47-.66,2.63,2.63,0,0,1-.91-2.17h-6l0,.12a6,6,0,0,0,2.4,4.88,10,10,0,0,0,6.82,2.19A11.09,11.09,0,0,0,150,41.84a5.58,5.58,0,0,0,2.53-4.69A5.22,5.22,0,0,0,150.65,32.86Z"/><path class="cls-1" d="M19.37,8.44H19l0,.06c-.54,2.2-1.07,4.53-1.64,7.12l3.54,11.75H14.67c-.66,2.72-1.32,5.23-2,7.62H23.13l2.49,8.29H36.05L23.51,4.93A4.43,4.43,0,0,1,19.37,8.44Z"/><path class="cls-1" d="M16.86,14.13l.44,1.49c.57-2.59,1.1-4.92,1.64-7.12l-2.16,5.36Z"/><circle class="cls-1" cx="127.79" cy="15.32" r="3.62"/></g></g></svg>